<?xml version="1.0" encoding="UTF-8"?>
<svg xmlns="http://www.w3.org/2000/svg" xmlns:xlink="http://www.w3.org/1999/xlink" width="595.5pt" height="842.249979pt" viewBox="0 0 595.5 842.249979" version="1.2">
<defs>
<clipPath id="clip1">
  <path d="M 243.746094 354.492188 L 391.492188 354.492188 L 391.492188 460.964844 L 243.746094 460.964844 Z M 243.746094 354.492188 "/>
</clipPath>
</defs>
<g id="surface1">
<path style=" stroke:none;fill-rule:evenodd;fill:rgb(52.159119%,85.099792%,96.859741%);fill-opacity:1;" d="M 366.292969 403.597656 C 359.40625 402.019531 359.40625 402.019531 358.832031 395.402344 C 357.230469 378.714844 343.492188 366.132812 326.867188 366.132812 C 314.402344 366.132812 302.925781 373.527344 297.632812 384.945312 C 295.128906 390.390625 294.554688 392.414062 289.257812 390.300781 C 286.039062 389.019531 283.011719 389.238281 283.011719 389.238281 C 276.644531 389.238281 271.46875 394.417969 271.46875 400.789062 C 271.46875 401.847656 271.683594 403.019531 272.132812 404.363281 C 274.789062 410.898438 274.351562 411.621094 268.023438 415.261719 C 261.507812 419.0625 257.613281 425.734375 257.613281 433.132812 C 257.613281 444.597656 266.9375 453.925781 278.394531 453.929688 L 361.496094 453.929688 L 361.496094 453.925781 C 375.503906 453.925781 386.890625 442.527344 386.890625 428.511719 C 386.890625 416.359375 378.230469 405.882812 366.292969 403.597656 Z M 366.292969 403.597656 "/>
<g clip-path="url(#clip1)" clip-rule="nonzero">
<path style=" stroke:none;fill-rule:evenodd;fill:rgb(100%,100%,100%);fill-opacity:1;" d="M 363.394531 392.203125 C 361.371094 371.121094 343.832031 354.578125 322.238281 354.578125 C 305.527344 354.578125 291.21875 364.503906 284.625 378.746094 C 282.636719 378.117188 280.570312 377.683594 278.378906 377.683594 C 266.90625 377.683594 257.601562 386.996094 257.601562 398.476562 C 257.601562 400.757812 258.058594 402.914062 258.734375 404.964844 C 249.8125 410.171875 243.746094 419.742188 243.746094 430.816406 C 243.746094 447.40625 257.183594 460.851562 273.761719 460.851562 L 273.761719 460.855469 L 356.863281 460.855469 L 356.863281 460.851562 C 375.996094 460.851562 391.492188 445.34375 391.492188 426.195312 C 391.492188 409.296875 379.394531 395.261719 363.394531 392.203125 M 356.867188 451.613281 L 356.867188 451.617188 L 273.761719 451.617188 C 262.304688 451.613281 252.984375 442.285156 252.984375 430.820312 C 252.984375 423.421875 256.875 416.746094 263.390625 412.949219 C 269.71875 409.304688 270.15625 408.585938 267.5 402.050781 C 267.050781 400.707031 266.835938 399.53125 266.835938 398.476562 C 266.835938 392.105469 272.011719 386.921875 278.378906 386.921875 C 278.378906 386.921875 281.40625 386.707031 284.625 387.988281 C 289.921875 390.101562 290.496094 388.078125 293 382.632812 C 298.289062 371.210938 309.769531 363.820312 322.234375 363.820312 C 338.859375 363.820312 352.597656 376.402344 354.199219 393.089844 C 354.773438 399.703125 354.773438 399.703125 361.660156 401.285156 C 373.597656 403.566406 382.257812 414.042969 382.257812 426.195312 C 382.261719 440.210938 370.871094 451.613281 356.867188 451.613281 "/>
</g>
<path style=" stroke:none;fill-rule:nonzero;fill:rgb(100%,100%,100%);fill-opacity:1;" d="M 266.5625 436.789062 C 266.5625 437.109375 266.503906 437.417969 266.378906 437.714844 C 266.257812 438.007812 266.082031 438.269531 265.855469 438.496094 C 265.628906 438.722656 265.367188 438.898438 265.070312 439.023438 C 264.777344 439.144531 264.46875 439.207031 264.148438 439.207031 C 263.828125 439.207031 263.519531 439.144531 263.222656 439.023438 C 262.925781 438.898438 262.664062 438.722656 262.4375 438.496094 C 262.210938 438.269531 262.039062 438.007812 261.914062 437.714844 C 261.792969 437.417969 261.730469 437.109375 261.730469 436.789062 C 261.730469 436.46875 261.792969 436.160156 261.914062 435.863281 C 262.039062 435.566406 262.210938 435.304688 262.4375 435.078125 C 262.664062 434.851562 262.925781 434.675781 263.222656 434.554688 C 263.519531 434.429688 263.828125 434.371094 264.148438 434.371094 C 264.46875 434.371094 264.777344 434.429688 265.070312 434.554688 C 265.367188 434.675781 265.628906 434.851562 265.855469 435.078125 C 266.082031 435.304688 266.257812 435.566406 266.378906 435.863281 C 266.503906 436.160156 266.5625 436.46875 266.5625 436.789062 Z M 266.5625 436.789062 "/>
<path style=" stroke:none;fill-rule:evenodd;fill:rgb(100%,100%,100%);fill-opacity:1;" d="M 281.351562 410.03125 C 281.34375 410.03125 281.34375 410.039062 281.335938 410.039062 C 270.507812 410.046875 261.730469 418.832031 261.730469 429.671875 C 261.730469 430.949219 262.765625 431.980469 264.039062 431.980469 C 265.3125 431.980469 266.347656 430.949219 266.347656 429.671875 L 266.347656 429.667969 C 266.347656 421.378906 273.066406 414.652344 281.347656 414.652344 L 281.351562 414.652344 C 282.625 414.652344 283.660156 413.621094 283.660156 412.34375 C 283.660156 411.066406 282.625 410.03125 281.351562 410.03125 "/>
</g>
</svg>
